<svg width="35" height="35" viewBox="0 0 35 35" fill="none" xmlns="http://www.w3.org/2000/svg">
<path d="M23.5464 3.36117H26.0253C27.0877 3.36117 29.2518 3.36118 30.157 7.4926C30.1964 7.73853 30.4324 7.8369 30.7079 7.8369C30.9833 7.8369 31.2981 7.73853 31.4161 7.59097C31.1407 5.4268 30.944 3.45955 30.6685 1C26.3796 1 21.7365 1.39349 18.0771 1.39349H14.4178C14.2998 1.54104 14.1423 2.08209 14.1423 2.47557C14.1423 2.7215 14.221 2.91824 14.3391 2.91824C15.4802 2.91824 15.795 3.80357 15.795 4.39383C15.795 4.59058 15.7556 4.73812 15.7163 4.83648C5.80038 26.5765 5.99736 28.4949 3.63633 31.4459C3.16415 32.0853 1.74762 32.4788 1.27544 32.4788C1.11804 32.4788 1 33.069 1 33.4625C1 33.6101 1.03936 33.7576 1.07873 33.8068C2.88873 33.7084 3.36091 33.5609 5.17095 33.5609C6.90227 33.5609 7.61052 33.7084 9.18453 33.8068C9.26324 33.6101 9.42062 32.9707 9.42062 32.6755C9.42062 32.5772 9.38127 32.4788 9.34192 32.4788C9.10585 32.4788 6.94168 32.1837 6.94168 31.0032C6.94168 30.413 7.25647 29.3309 8.20083 27.216L11.4668 19.3956C11.5061 19.2972 11.5848 19.248 11.7028 19.248H17.4084C17.6052 19.248 17.7626 19.3956 17.7626 19.6415C17.8413 20.576 18.5102 27.3636 18.5102 29.2817C18.5102 30.0195 18.4315 30.7081 18.1954 31.1999C17.9986 31.6426 15.7558 32.1345 15.2837 32.1345C15.1656 32.1345 15.087 32.6756 15.087 33.1182C15.087 33.4133 15.1263 33.7084 15.205 33.8068C15.205 33.8068 17.8413 33.5609 20.4777 33.5609C24.0584 33.5609 27.7964 33.856 32.0853 33.856C32.3607 31.6918 33.1477 28.3472 33.856 25.6911C33.7379 25.5435 33.3051 25.396 32.9116 25.396C32.6362 25.396 32.3607 25.4943 32.3214 25.6911C31.7312 28.2979 30.9442 30.167 30.1966 30.6588C29.0555 31.3966 26.734 31.495 25.2387 31.495C22.3661 31.495 22.2875 31.0031 22.2089 30.3637C22.0908 29.5275 21.8548 26.0847 21.8548 26.0847L21.3039 19.5923V19.5431C21.3039 19.1496 21.8941 19.1005 22.9565 19.1005C24.4517 19.1005 26.8126 19.1496 27.2454 19.4939C27.5996 19.7891 27.875 19.8383 28.4652 22.6418C28.5439 22.8878 28.78 22.9861 29.0554 22.9861C29.3309 22.9861 29.6457 22.8878 29.7244 22.7894C29.4489 20.2317 29.1735 17.6248 29.1735 15.0673C29.1735 14.5262 29.1735 13.8868 29.2128 13.3458C29.0948 13.1982 28.8194 13.0999 28.5439 13.0999C28.2685 13.0999 28.0324 13.1982 27.993 13.4442C27.3241 16.6904 27.4422 16.9363 23.8614 16.9363H22.4055C21.6579 16.9363 21.0283 16.8872 20.989 16.5921L20.1233 4.73816V4.63978C20.1233 4.09873 20.4773 3.36117 23.5464 3.36117ZM12.5685 16.9361C12.5685 16.9361 12.5291 16.9361 12.5291 16.8377V16.7393L16.7394 6.75458C16.7394 6.75458 17.2509 12.8045 17.5264 16.641C17.5264 16.7886 17.4477 16.887 17.3296 16.887C16.464 16.9853 15.7163 16.9853 14.8507 16.9853C14.1818 16.9853 13.4341 16.9852 12.5685 16.9361Z" fill="black"/>
<path d="M23.5464 3.36117H26.0253C27.0877 3.36117 29.2518 3.36118 30.157 7.4926C30.1964 7.73853 30.4324 7.8369 30.7079 7.8369C30.9833 7.8369 31.2981 7.73853 31.4161 7.59097C31.1407 5.4268 30.944 3.45955 30.6685 1C26.3796 1 21.7365 1.39349 18.0771 1.39349H14.4178C14.2998 1.54104 14.1423 2.08209 14.1423 2.47557C14.1423 2.7215 14.221 2.91824 14.3391 2.91824C15.4802 2.91824 15.795 3.80357 15.795 4.39383C15.795 4.59058 15.7556 4.73812 15.7163 4.83648C5.80038 26.5765 5.99736 28.4949 3.63633 31.4459C3.16415 32.0853 1.74762 32.4788 1.27544 32.4788C1.11804 32.4788 1 33.069 1 33.4625C1 33.6101 1.03936 33.7576 1.07873 33.8068C2.88873 33.7084 3.36091 33.5609 5.17095 33.5609C6.90227 33.5609 7.61052 33.7084 9.18453 33.8068C9.26324 33.6101 9.42062 32.9707 9.42062 32.6755C9.42062 32.5772 9.38127 32.4788 9.34192 32.4788C9.10585 32.4788 6.94168 32.1837 6.94168 31.0032C6.94168 30.413 7.25647 29.3309 8.20083 27.216L11.4668 19.3956C11.5061 19.2972 11.5848 19.248 11.7028 19.248H17.4084C17.6052 19.248 17.7626 19.3956 17.7626 19.6415C17.8413 20.576 18.5102 27.3636 18.5102 29.2817C18.5102 30.0195 18.4315 30.7081 18.1954 31.1999C17.9986 31.6426 15.7558 32.1345 15.2837 32.1345C15.1656 32.1345 15.087 32.6756 15.087 33.1182C15.087 33.4133 15.1263 33.7084 15.205 33.8068C15.205 33.8068 17.8413 33.5609 20.4777 33.5609C24.0584 33.5609 27.7964 33.856 32.0853 33.856C32.3607 31.6918 33.1477 28.3472 33.856 25.6911C33.7379 25.5435 33.3051 25.396 32.9116 25.396C32.6362 25.396 32.3607 25.4943 32.3214 25.6911C31.7312 28.2979 30.9442 30.167 30.1966 30.6588C29.0555 31.3966 26.734 31.495 25.2387 31.495C22.3661 31.495 22.2875 31.0031 22.2089 30.3637C22.0908 29.5275 21.8548 26.0847 21.8548 26.0847L21.3039 19.5923V19.5431C21.3039 19.1496 21.8941 19.1005 22.9565 19.1005C24.4517 19.1005 26.8126 19.1496 27.2454 19.4939C27.5996 19.7891 27.875 19.8383 28.4652 22.6418C28.5439 22.8878 28.78 22.9861 29.0554 22.9861C29.3309 22.9861 29.6457 22.8878 29.7244 22.7894C29.4489 20.2317 29.1735 17.6248 29.1735 15.0673C29.1735 14.5262 29.1735 13.8868 29.2128 13.3458C29.0948 13.1982 28.8194 13.0999 28.5439 13.0999C28.2685 13.0999 28.0324 13.1982 27.993 13.4442C27.3241 16.6904 27.4422 16.9363 23.8614 16.9363H22.4055C21.6579 16.9363 21.0283 16.8872 20.989 16.5921L20.1233 4.73816V4.63978C20.1233 4.09873 20.4773 3.36117 23.5464 3.36117ZM12.5685 16.9361C12.5685 16.9361 12.5291 16.9361 12.5291 16.8377V16.7393L16.7394 6.75458C16.7394 6.75458 17.2509 12.8045 17.5264 16.641C17.5264 16.7886 17.4477 16.887 17.3296 16.887C16.464 16.9853 15.7163 16.9853 14.8507 16.9853C14.1818 16.9853 13.4341 16.9852 12.5685 16.9361Z" fill="url(#paint0_linear_4064_2977)"/>
<path d="M23.5464 3.36117H26.0253C27.0877 3.36117 29.2518 3.36118 30.157 7.4926C30.1964 7.73853 30.4324 7.8369 30.7079 7.8369C30.9833 7.8369 31.2981 7.73853 31.4161 7.59097C31.1407 5.4268 30.944 3.45955 30.6685 1C26.3796 1 21.7365 1.39349 18.0771 1.39349H14.4178C14.2998 1.54104 14.1423 2.08209 14.1423 2.47557C14.1423 2.7215 14.221 2.91824 14.3391 2.91824C15.4802 2.91824 15.795 3.80357 15.795 4.39383C15.795 4.59058 15.7556 4.73812 15.7163 4.83648C5.80038 26.5765 5.99736 28.4949 3.63633 31.4459C3.16415 32.0853 1.74762 32.4788 1.27544 32.4788C1.11804 32.4788 1 33.069 1 33.4625C1 33.6101 1.03936 33.7576 1.07873 33.8068C2.88873 33.7084 3.36091 33.5609 5.17095 33.5609C6.90227 33.5609 7.61052 33.7084 9.18453 33.8068C9.26324 33.6101 9.42062 32.9707 9.42062 32.6755C9.42062 32.5772 9.38127 32.4788 9.34192 32.4788C9.10585 32.4788 6.94168 32.1837 6.94168 31.0032C6.94168 30.413 7.25647 29.3309 8.20083 27.216L11.4668 19.3956C11.5061 19.2972 11.5848 19.248 11.7028 19.248H17.4084C17.6052 19.248 17.7626 19.3956 17.7626 19.6415C17.8413 20.576 18.5102 27.3636 18.5102 29.2817C18.5102 30.0195 18.4315 30.7081 18.1954 31.1999C17.9986 31.6426 15.7558 32.1345 15.2837 32.1345C15.1656 32.1345 15.087 32.6756 15.087 33.1182C15.087 33.4133 15.1263 33.7084 15.205 33.8068C15.205 33.8068 17.8413 33.5609 20.4777 33.5609C24.0584 33.5609 27.7964 33.856 32.0853 33.856C32.3607 31.6918 33.1477 28.3472 33.856 25.6911C33.7379 25.5435 33.3051 25.396 32.9116 25.396C32.6362 25.396 32.3607 25.4943 32.3214 25.6911C31.7312 28.2979 30.9442 30.167 30.1966 30.6588C29.0555 31.3966 26.734 31.495 25.2387 31.495C22.3661 31.495 22.2875 31.0031 22.2089 30.3637C22.0908 29.5275 21.8548 26.0847 21.8548 26.0847L21.3039 19.5923V19.5431C21.3039 19.1496 21.8941 19.1005 22.9565 19.1005C24.4517 19.1005 26.8126 19.1496 27.2454 19.4939C27.5996 19.7891 27.875 19.8383 28.4652 22.6418C28.5439 22.8878 28.78 22.9861 29.0554 22.9861C29.3309 22.9861 29.6457 22.8878 29.7244 22.7894C29.4489 20.2317 29.1735 17.6248 29.1735 15.0673C29.1735 14.5262 29.1735 13.8868 29.2128 13.3458C29.0948 13.1982 28.8194 13.0999 28.5439 13.0999C28.2685 13.0999 28.0324 13.1982 27.993 13.4442C27.3241 16.6904 27.4422 16.9363 23.8614 16.9363H22.4055C21.6579 16.9363 21.0283 16.8872 20.989 16.5921L20.1233 4.73816V4.63978C20.1233 4.09873 20.4773 3.36117 23.5464 3.36117ZM12.5685 16.9361C12.5685 16.9361 12.5291 16.9361 12.5291 16.8377V16.7393L16.7394 6.75458C16.7394 6.75458 17.2509 12.8045 17.5264 16.641C17.5264 16.7886 17.4477 16.887 17.3296 16.887C16.464 16.9853 15.7163 16.9853 14.8507 16.9853C14.1818 16.9853 13.4341 16.9852 12.5685 16.9361Z" stroke="url(#paint1_linear_4064_2977)" stroke-width="2"/>
<defs>
<linearGradient id="paint0_linear_4064_2977" x1="17.428" y1="1" x2="17.428" y2="33.856" gradientUnits="userSpaceOnUse">
<stop stop-color="#F213A4"/>
<stop offset="0.05" stop-color="#E011A7"/>
<stop offset="0.15" stop-color="#B20DAF"/>
<stop offset="0.4" stop-color="#6806BB"/>
<stop offset="1" stop-color="#5204BF"/>
</linearGradient>
<linearGradient id="paint1_linear_4064_2977" x1="17.428" y1="1" x2="17.428" y2="33.856" gradientUnits="userSpaceOnUse">
<stop stop-color="#F213A4"/>
<stop offset="0.05" stop-color="#E011A7"/>
<stop offset="0.15" stop-color="#B20DAF"/>
<stop offset="0.4" stop-color="#6806BB"/>
<stop offset="1" stop-color="#5204BF"/>
</linearGradient>
</defs>
</svg>
  
